<?xml version="1.0" standalone="no"?>
<!DOCTYPE svg PUBLIC "-//W3C//DTD SVG 20010904//EN"
 "http://www.w3.org/TR/2001/REC-SVG-20010904/DTD/svg10.dtd">
<svg version="1.0" xmlns="http://www.w3.org/2000/svg"
 width="1280.000000pt" height="349.000000pt" viewBox="0 0 1280.000000 349.000000"
 preserveAspectRatio="xMidYMid meet">

<g transform="translate(0.000000,349.000000) scale(0.100000,-0.100000)"
fill="#000000" stroke="none">
<path d="M89 3329 c0 -52 -2 -115 -4 -141 -4 -56 18 -69 29 -17 8 43 81 114
131 128 22 6 106 11 186 11 l147 0 -5 -612 c-4 -511 -8 -617 -20 -636 -19 -31
-72 -62 -105 -62 -16 0 -28 -4 -28 -10 0 -6 110 -10 311 -10 204 0 308 3 304
10 -3 5 -18 10 -33 10 -39 0 -91 36 -107 73 -11 26 -14 147 -15 602 -1 314 -1
585 -1 603 l1 32 153 0 c131 0 158 -3 197 -21 24 -11 53 -28 63 -37 28 -25 61
-92 68 -137 3 -22 7 38 7 134 l2 174 -32 -7 c-100 -22 -195 -26 -618 -26 -423
0 -519 4 -602 25 l-28 7 -1 -93z"/>
<path d="M2467 3288 c-30 -73 -111 -266 -178 -428 -67 -162 -123 -297 -125
-299 -2 -2 -6 -2 -9 1 -6 5 -66 170 -111 303 -25 74 -49 145 -108 310 -20 55
-36 108 -36 117 0 27 49 78 76 78 13 0 24 5 24 10 0 6 -106 10 -299 10 -189 0
-302 -4 -306 -10 -4 -6 6 -10 21 -10 41 0 111 -37 139 -74 13 -17 44 -89 70
-161 25 -71 52 -142 60 -157 8 -14 15 -31 15 -38 0 -7 6 -26 14 -43 8 -18 36
-95 62 -171 25 -76 53 -151 60 -165 8 -14 14 -30 14 -34 0 -5 7 -23 15 -40 8
-18 25 -66 39 -107 25 -75 58 -168 111 -310 15 -41 34 -80 41 -86 17 -14 18
-28 2 -18 -10 5 -10 4 -1 -6 18 -20 23 -11 35 66 10 69 29 125 73 218 13 28
27 63 30 79 4 15 10 27 14 27 4 0 15 26 25 58 10 31 22 62 26 67 5 6 18 37 31
70 12 33 25 65 29 70 4 6 20 46 35 90 16 44 36 91 45 105 10 14 23 42 29 63 7
20 14 37 17 37 5 0 63 -125 80 -173 7 -21 22 -50 32 -65 10 -15 27 -47 36 -72
18 -45 48 -113 91 -205 13 -27 38 -84 55 -125 64 -150 113 -246 141 -272 l29
-27 0 25 c0 33 40 216 50 229 4 6 18 50 30 99 12 50 26 97 31 105 9 18 79 242
79 255 0 4 7 22 14 39 8 18 22 61 31 97 9 36 20 70 25 75 4 6 13 35 20 65 7
30 23 89 35 130 13 41 26 92 29 113 4 20 10 37 15 37 4 0 15 16 24 35 20 43
83 85 136 92 23 3 41 10 41 14 0 5 -96 9 -212 9 l-213 0 42 -19 c44 -20 63
-45 63 -82 0 -20 -48 -205 -70 -269 -5 -14 -37 -125 -71 -247 -35 -123 -67
-223 -71 -223 -5 0 -11 14 -14 30 -4 17 -10 30 -15 30 -5 0 -9 4 -9 9 0 10
-165 376 -181 401 -5 8 -14 26 -20 40 -5 14 -18 43 -28 65 -10 22 -35 81 -57
130 -21 50 -43 97 -50 105 -6 8 -15 25 -18 38 -4 12 -11 22 -15 22 -4 0 -33
-60 -64 -132z m667 -473 c-4 -8 -8 -15 -10 -15 -2 0 -4 7 -4 15 0 8 4 15 10
15 5 0 7 -7 4 -15z"/>
<path d="M4125 3410 c-268 -31 -511 -196 -581 -394 -8 -21 -19 -45 -24 -51
-17 -21 -40 -177 -40 -280 0 -361 188 -612 528 -702 85 -23 117 -26 257 -26
142 0 171 3 258 26 114 32 188 67 272 130 121 91 215 246 245 406 20 108 8
371 -20 406 -4 6 -13 28 -20 50 -21 66 -90 175 -144 228 -97 95 -244 171 -377
195 -85 16 -264 22 -354 12z m318 -113 c72 -36 109 -66 157 -132 61 -83 86
-143 109 -261 22 -118 28 -302 12 -377 -5 -23 -14 -66 -20 -94 -30 -146 -146
-305 -263 -359 -58 -27 -72 -29 -178 -29 -107 0 -119 2 -175 29 -107 53 -180
140 -240 288 -63 155 -65 492 -3 648 25 65 93 174 133 213 31 30 121 84 163
98 15 4 77 7 137 6 98 -2 116 -5 168 -30z"/>
<path d="M12163 3406 c-145 -28 -246 -112 -285 -239 -24 -80 -30 -190 -11
-228 6 -13 21 -45 33 -71 23 -52 116 -150 164 -175 17 -9 42 -25 56 -35 14
-11 90 -62 169 -115 186 -122 225 -155 252 -209 42 -88 -4 -205 -104 -260 -49
-27 -59 -29 -167 -29 -110 0 -118 1 -182 33 -109 53 -188 171 -188 281 0 53
-1 54 -19 37 -11 -10 -29 -44 -41 -77 -19 -49 -22 -73 -18 -140 6 -93 20 -120
88 -155 90 -47 193 -67 345 -67 125 -1 149 2 220 26 189 62 294 181 310 351
13 134 -21 226 -116 316 -20 20 -134 98 -254 175 -260 167 -307 207 -330 275
-16 48 -16 49 10 99 27 55 83 102 142 122 22 7 73 10 133 7 114 -6 160 -26
214 -95 30 -39 36 -42 49 -28 18 17 37 98 37 154 l0 38 -142 7 c-79 3 -177 8
-218 11 -43 2 -106 -1 -147 -9z"/>
<path d="M7132 3273 c-44 -76 -92 -158 -107 -183 -15 -25 -58 -99 -97 -165
-112 -193 -171 -293 -237 -403 -33 -57 -61 -107 -61 -112 0 -21 -20 -8 -41 28
-12 20 -41 66 -63 102 -48 75 -58 92 -86 140 -11 19 -50 82 -86 140 -79 128
-268 440 -309 511 -16 29 -35 54 -42 56 -7 3 -16 -13 -23 -39 -6 -24 -15 -56
-21 -73 -5 -16 -18 -102 -29 -190 -11 -88 -27 -212 -35 -275 -35 -257 -46
-351 -54 -469 -5 -68 -13 -126 -18 -130 -6 -3 -13 -32 -16 -63 -3 -35 -14 -70
-26 -87 -22 -30 -85 -61 -126 -61 -14 0 -25 -4 -25 -10 0 -6 77 -10 210 -10
133 0 210 4 210 10 0 6 -14 10 -30 10 -20 0 -40 9 -56 25 -25 25 -26 28 -19
123 8 129 14 182 19 191 3 4 8 32 11 62 3 30 12 117 21 194 9 77 16 155 16
173 0 17 3 32 6 32 7 0 67 -96 153 -244 19 -33 44 -75 55 -92 10 -17 46 -78
78 -135 32 -57 69 -120 82 -139 12 -19 47 -76 76 -126 l53 -91 27 28 c15 15
36 47 46 71 22 53 79 158 185 340 31 53 57 103 57 111 0 8 6 17 14 20 7 3 37
47 65 99 72 129 101 175 102 163 1 -15 8 -63 19 -140 13 -91 38 -344 45 -465
3 -52 8 -105 11 -117 6 -32 -40 -83 -77 -83 -16 0 -29 -4 -29 -10 0 -6 107
-10 300 -10 193 0 300 4 300 10 0 6 -12 10 -27 10 -16 0 -46 9 -68 19 -51 23
-81 81 -90 176 -3 39 -13 113 -21 165 -8 52 -24 165 -34 250 -11 85 -24 182
-30 215 -6 33 -15 94 -20 135 -15 134 -66 440 -75 448 -1 1 -39 -59 -83 -135z"/>
<path d="M8560 3388 c-1 -7 -1 -301 0 -654 1 -491 -2 -647 -12 -668 -14 -32
-75 -66 -118 -66 -16 0 -30 -4 -30 -10 0 -6 108 -10 305 -10 197 0 305 4 305
10 0 6 -15 10 -32 10 -18 0 -47 9 -65 20 -65 40 -63 24 -61 483 l3 416 112
-107 c61 -59 171 -163 245 -232 73 -69 205 -195 293 -281 134 -130 264 -253
359 -337 17 -16 18 -15 13 28 -3 25 -11 311 -17 636 -13 651 -13 653 45 711
27 27 41 33 74 33 23 0 41 5 41 10 0 6 -107 10 -300 10 -193 0 -300 -4 -300
-10 0 -5 14 -10 32 -10 39 0 94 -36 109 -72 12 -30 19 -840 7 -835 -6 2 -40
33 -258 241 -52 50 -138 131 -190 181 -96 90 -248 236 -437 418 -99 94 -122
110 -123 85z"/>
<path d="M7692 3372 c26 -9 61 -30 77 -47 27 -28 29 -37 37 -140 8 -125 7
-896 -2 -1025 -6 -78 -9 -87 -39 -117 -21 -21 -46 -35 -74 -39 -102 -16 -18
-24 264 -24 197 0 305 4 305 10 0 6 -13 10 -29 10 -38 0 -92 38 -114 80 -16
32 -17 78 -15 622 l3 587 34 35 c20 21 50 38 77 45 24 6 44 13 44 16 0 3 -138
5 -307 4 -301 -1 -307 -1 -261 -17z"/>
<path d="M10179 3377 c18 -7 51 -28 72 -45 l39 -33 0 -601 c0 -597 0 -601 -22
-635 -21 -35 -69 -63 -108 -63 -11 0 -20 -5 -20 -11 0 -18 866 -6 956 14 127
28 258 93 335 168 89 87 159 207 174 299 4 25 11 50 17 57 12 15 13 285 0 309
-5 10 -12 37 -16 59 -11 60 -28 107 -51 140 -12 17 -24 35 -26 42 -7 22 -92
118 -137 154 -60 50 -171 103 -272 130 -82 22 -101 23 -530 26 -365 2 -439 0
-411 -10z m742 -77 c264 -50 403 -293 386 -679 -5 -131 -24 -205 -79 -319 -32
-66 -131 -163 -203 -198 -59 -28 -64 -29 -247 -32 l-188 -4 0 621 0 621 139 0
c76 0 162 -5 192 -10z"/>
<path d="M45 3220 c3 -5 8 -10 11 -10 2 0 4 5 4 10 0 6 -5 10 -11 10 -5 0 -7
-4 -4 -10z"/>
<path d="M6021 2724 c0 -11 3 -14 6 -6 3 7 2 16 -1 19 -3 4 -6 -2 -5 -13z"/>
<path d="M6970 2695 c0 -9 5 -15 11 -13 6 2 11 8 11 13 0 5 -5 11 -11 13 -6 2
-11 -4 -11 -13z"/>
<path d="M6655 1436 c-150 -35 -283 -114 -355 -211 -22 -30 -40 -57 -40 -60 0
-4 -11 -21 -25 -39 -14 -18 -37 -66 -52 -107 -25 -70 -27 -84 -27 -249 l0
-175 33 -84 c18 -46 41 -91 51 -101 10 -10 36 -45 59 -79 23 -34 54 -69 69
-78 15 -10 35 -26 46 -35 29 -27 156 -85 216 -99 81 -19 300 -17 379 4 89 24
185 77 259 143 70 62 98 109 112 186 12 60 15 65 34 49 12 -10 16 -6 25 21 48
155 37 478 -20 531 -10 10 -19 25 -19 33 0 35 -58 124 -119 182 -125 121 -252
171 -446 178 -81 2 -140 -1 -180 -10z m275 -56 c139 -26 267 -128 338 -269 61
-121 86 -336 57 -476 -29 -136 -43 -185 -60 -201 -8 -8 -15 -21 -15 -28 0 -7
-31 -46 -69 -87 -105 -114 -217 -162 -371 -162 -228 1 -398 122 -477 341 -34
93 -35 104 -40 270 -4 129 -3 180 7 200 14 29 16 35 51 132 19 49 40 81 93
137 71 76 134 114 231 138 61 16 184 18 255 5z"/>
<path d="M8235 1444 c-153 -36 -194 -51 -260 -95 -40 -26 -90 -68 -111 -94
-21 -26 -51 -61 -66 -78 -38 -42 -88 -172 -99 -254 -26 -205 8 -417 87 -536
14 -22 56 -70 93 -106 73 -74 193 -141 291 -163 73 -16 280 -16 355 1 83 18
237 93 269 132 26 31 26 32 20 150 -6 103 -5 119 8 119 20 0 31 -53 30 -142
-1 -64 9 -87 22 -52 3 9 6 86 6 172 0 86 3 167 6 180 7 26 51 52 89 52 14 0
25 5 25 10 0 13 -346 14 -354 1 -3 -5 13 -11 35 -14 77 -10 79 -15 79 -228 l0
-189 -42 -31 c-155 -115 -374 -153 -537 -96 -88 31 -166 82 -221 144 -40 45
-54 73 -125 237 -33 75 -29 423 5 434 5 2 10 10 10 17 0 7 19 50 42 96 70 141
196 242 336 270 79 15 251 7 312 -16 77 -28 161 -87 195 -136 41 -60 55 -53
55 25 0 70 -6 79 -77 115 -88 44 -212 72 -338 76 -66 2 -129 2 -140 -1z"/>
<path d="M4005 1410 c3 -5 19 -10 34 -10 41 0 93 -39 103 -78 5 -18 7 -273 6
-567 l-3 -534 -30 -31 c-16 -17 -47 -36 -69 -42 -36 -11 -37 -13 -15 -18 41
-11 421 -11 500 0 161 22 270 91 294 187 7 31 19 51 32 57 18 9 20 18 19 98
-1 54 -5 92 -12 96 -7 4 -19 30 -28 57 -10 28 -24 60 -31 72 -38 57 -122 111
-200 128 l-30 7 33 17 c55 29 131 110 144 155 16 53 16 171 0 217 -14 41 -97
131 -142 154 -68 35 -150 45 -383 45 -150 0 -226 -3 -222 -10z m483 -66 c63
-26 94 -56 123 -121 35 -77 37 -126 9 -217 -33 -105 -106 -161 -226 -173 -64
-7 -83 -23 -27 -23 127 0 251 -48 318 -122 51 -57 60 -88 59 -208 0 -102 -25
-162 -91 -220 -57 -50 -113 -64 -263 -64 l-125 -1 -2 335 c-1 184 -3 439 -3
567 -1 159 2 238 10 253 11 21 16 21 98 15 48 -4 102 -13 120 -21z"/>
<path d="M5090 1410 c0 -5 15 -10 34 -10 19 0 45 -9 60 -21 57 -45 56 -32 56
-606 l0 -528 -26 -38 c-15 -23 -43 -46 -67 -57 -42 -19 -40 -19 334 -19 407
-1 389 -3 389 50 0 10 4 19 9 19 5 0 11 13 14 30 4 16 16 51 28 76 13 31 17
50 11 56 -7 7 -14 3 -21 -11 -7 -12 -9 -21 -7 -21 3 0 -5 -11 -17 -24 -12 -13
-29 -32 -37 -42 -48 -61 -174 -87 -375 -79 l-120 5 -3 571 -2 571 34 34 c26
26 42 34 70 34 20 0 36 5 36 10 0 6 -73 10 -200 10 -127 0 -200 -4 -200 -10z"/>
</g>
</svg>
